# xmcd
#
# Track frame offsets:
#	150
#	11700
#	24315
#	38327
#	51440
#	65110
#	77232
#	90362
#	102257
#	117027
#	132060
#	146962
#	159932
#	174930
#	186987
#	201420
#	215657
#	231277
#	244412
#	261297
#
# Disc length: 3640 seconds
#
# Revision: 2
# Processed by: cddbd v1.5.2PL0 Copyright (c) Steve Scherf et al.
# Submitted via: audiograbber 1.83.01
#
DISCID=1b0e3614
DTITLE=Sweethearts Of The Rodeo - Anthology
DYEAR=2000
DGENRE=Oldies
TTITLE0=Hey Doll Baby
TTITLE1=Since I Found You
TTITLE2=Midnight Girl - Sunset Town
TTITLE3=Chains Of Gold
TTITLE4=Gotta Get Away
TTITLE5=Satisfy You
TTITLE6=Blue To The Bone
TTITLE7=I Feel Fine
TTITLE8=If I Never See Midnight Again
TTITLE9=This Heart
TTITLE10=Hard-Headed Man
TTITLE11=Devil And Your Deep Blue Eyes
TTITLE12=One Time, One Night
TTITLE13=You Never Talk Sweet
TTITLE14=Chosen Few
TTITLE15=So Sad (To Watch Good Love Go Bad)
TTITLE16=Sisters
TTITLE17=A Woman Can Tell (Every Time)
TTITLE18=(Our Love Is Like) Silver And Gold
TTITLE19=Why Should I Stay Blue
EXTD=
EXTT0=
EXTT1=
EXTT2=
EXTT3=
EXTT4=
EXTT5=
EXTT6=
EXTT7=
EXTT8=
EXTT9=
EXTT10=
EXTT11=
EXTT12=
EXTT13=
EXTT14=
EXTT15=
EXTT16=
EXTT17=
EXTT18=
EXTT19=
PLAYORDER=
